HIERARCHY
ROOT Hips
{
	OFFSET 0.000000 83.214638 0.000000
	CHANNELS 6 Xposition Yposition Zposition Xrotation Yrotation Zrotation
	JOINT Pelvis
	{
		OFFSET 0.000000 0.000000 0.000000
		CHANNELS 3 Xrotation Yrotation Zrotation
		JOINT LeftUpLeg
		{
			OFFSET 8.479700 -4.795502 -0.379100
			CHANNELS 3 Xrotation Yrotation Zrotation
			JOINT LeftLeg
			{
				OFFSET 0.024144 -32.555107 0.112900
				CHANNELS 3 Xrotation Yrotation Zrotation
				JOINT LeftFoot
				{
					OFFSET -0.024144 -32.638630 -3.012600
					CHANNELS 3 Xrotation Yrotation Zrotation
					JOINT LeftToeBase
					{
						OFFSET 0.970200 -13.225400 11.864200
						CHANNELS 3 Xrotation Yrotation Zrotation
						End Site
						{
							OFFSET 0.000000 12.319262 0.000000
						}
					}
					JOINT LFootTongue
					{
						OFFSET 1.142400 -1.059800 6.665200
						CHANNELS 3 Xrotation Yrotation Zrotation
						End Site
						{
							OFFSET 0.000000 12.319262 0.000000
						}
					}
				}
				JOINT LeftPantLeg
				{
					OFFSET 0.918482 -16.533964 -2.284700
					CHANNELS 3 Xrotation Yrotation Zrotation
					End Site
					{
						OFFSET 0.350399 24.744368 0.000000
					}
				}
			}
		}
		JOINT RightUpLeg
		{
			OFFSET -8.479700 -4.795502 -0.379100
			CHANNELS 3 Xrotation Yrotation Zrotation
			JOINT RightLeg
			{
				OFFSET -0.023144 -32.555092 0.112900
				CHANNELS 3 Xrotation Yrotation Zrotation
				JOINT RightFoot
				{
					OFFSET 0.023144 -32.638641 -3.012700
					CHANNELS 3 Xrotation Yrotation Zrotation
					JOINT RightToeBase
					{
						OFFSET -0.970200 -13.225400 11.864200
						CHANNELS 3 Xrotation Yrotation Zrotation
						End Site
						{
							OFFSET 0.000000 12.319244 0.000000
						}
					}
					JOINT RFootTongue
					{
						OFFSET -1.142200 -1.059800 6.665200
						CHANNELS 3 Xrotation Yrotation Zrotation
						End Site
						{
							OFFSET 0.000000 12.319243 0.000000
						}
					}
				}
				JOINT RightPantLeg
				{
					OFFSET -0.919482 -16.533978 -2.284800
					CHANNELS 3 Xrotation Yrotation Zrotation
					End Site
					{
						OFFSET -0.350400 24.744419 0.000000
					}
				}
			}
		}
	}
	JOINT Spine
	{
		OFFSET 0.000000 7.722000 1.166200
		CHANNELS 3 Xrotation Yrotation Zrotation
		JOINT Spine1
		{
			OFFSET 0.000000 12.024101 0.248800
			CHANNELS 3 Xrotation Yrotation Zrotation
			JOINT Spine2
			{
				OFFSET 0.000000 11.502998 -0.491200
				CHANNELS 3 Xrotation Yrotation Zrotation
				JOINT Neck
				{
					OFFSET 0.000000 18.430702 -3.123100
					CHANNELS 3 Xrotation Yrotation Zrotation
					JOINT Head
					{
						OFFSET 0.000000 9.051102 1.034000
						CHANNELS 3 Xrotation Yrotation Zrotation
						JOINT HairB
						{
							OFFSET 0.208400 24.786102 24.822300
							CHANNELS 3 Xrotation Yrotation Zrotation
							End Site
							{
								OFFSET 0.000000 32.263779 0.000000
							}
						}
						JOINT HairA
						{
							OFFSET -7.081100 24.428299 23.196600
							CHANNELS 3 Xrotation Yrotation Zrotation
							End Site
							{
								OFFSET 0.000000 32.263779 0.000000
							}
						}
						JOINT Hat
						{
							OFFSET 16.728800 15.048294 -15.439601
							CHANNELS 3 Xrotation Yrotation Zrotation
							End Site
							{
								OFFSET 0.000000 32.263779 0.000000
							}
						}
					}
				}
				JOINT LeftShoulder
				{
					OFFSET 6.197800 13.665199 -4.064700
					CHANNELS 3 Xrotation Yrotation Zrotation
					JOINT LeftArm
					{
						OFFSET 7.778100 -0.187103 -1.709300
						CHANNELS 3 Xrotation Yrotation Zrotation
						JOINT LeftForeArm
						{
							OFFSET 22.049376 0.000000 0.000000
							CHANNELS 3 Xrotation Yrotation Zrotation
							JOINT LeftHand
							{
								OFFSET 23.009392 0.000000 0.000000
								CHANNELS 3 Xrotation Yrotation Zrotation
								JOINT LeftHandThumb1
								{
									OFFSET 3.507191 -2.063065 3.133727
									CHANNELS 3 Xrotation Yrotation Zrotation
									JOINT LeftHandThumb2
									{
										OFFSET 3.101337 -1.790558 1.790558
										CHANNELS 3 Xrotation Yrotation Zrotation
										JOINT LeftHandThumb3
										{
											OFFSET 3.058640 -1.765907 1.765906
											CHANNELS 3 Xrotation Yrotation Zrotation
											End Site
											{
												OFFSET -0.415260 3.926476 -0.049563
											}
										}
									}
								}
								JOINT LeftHandIndex1
								{
									OFFSET 11.334419 -0.901459 3.706815
									CHANNELS 3 Xrotation Yrotation Zrotation
									JOINT LeftHandIndex2
									{
										OFFSET 3.283112 0.000000 0.000000
										CHANNELS 3 Xrotation Yrotation Zrotation
										JOINT LeftHandIndex3
										{
											OFFSET 3.323853 0.000000 0.000000
											CHANNELS 3 Xrotation Yrotation Zrotation
											End Site
											{
												OFFSET -1.135597 3.097809 0.402452
											}
										}
									}
								}
								JOINT LeftHandMiddle1
								{
									OFFSET 11.335861 0.000000 0.000000
									CHANNELS 3 Xrotation Yrotation Zrotation
									JOINT LeftHandMiddle2
									{
										OFFSET 3.410492 0.000000 0.000000
										CHANNELS 3 Xrotation Yrotation Zrotation
										JOINT LeftHandMiddle3
										{
											OFFSET 3.312172 0.000000 0.000000
											CHANNELS 3 Xrotation Yrotation Zrotation
											End Site
											{
												OFFSET -1.150200 3.080154 0.400270
											}
										}
									}
								}
								JOINT LeftHandRing1
								{
									OFFSET 11.514786 -0.013176 -3.003090
									CHANNELS 3 Xrotation Yrotation Zrotation
									JOINT LeftHandRing2
									{
										OFFSET 3.053307 0.000000 0.000000
										CHANNELS 3 Xrotation Yrotation Zrotation
										JOINT LeftHandRing3
										{
											OFFSET 3.295807 0.000000 0.000000
											CHANNELS 3 Xrotation Yrotation Zrotation
											End Site
											{
												OFFSET -1.281006 3.013344 0.375733
											}
										}
									}
								}
								JOINT LeftHandPinky1
								{
									OFFSET 10.518692 -0.960396 -5.730441
									CHANNELS 3 Xrotation Yrotation Zrotation
									JOINT LeftHandPinky2
									{
										OFFSET 2.861649 0.000000 0.000000
										CHANNELS 3 Xrotation Yrotation Zrotation
										JOINT LeftHandPinky3
										{
											OFFSET 2.863380 0.000000 0.000000
											CHANNELS 3 Xrotation Yrotation Zrotation
											End Site
											{
												OFFSET -0.843597 2.711159 0.369971
											}
										}
									}
								}
							}
							JOINT LSleeve
							{
								OFFSET 6.676277 -0.344902 -1.011730
								CHANNELS 3 Xrotation Yrotation Zrotation
								End Site
								{
									OFFSET 0.000000 14.885353 0.000000
								}
							}
						}
					}
				}
				JOINT RightShoulder
				{
					OFFSET -6.197800 13.665199 -4.064700
					CHANNELS 3 Xrotation Yrotation Zrotation
					JOINT RightArm
					{
						OFFSET -7.778100 -0.187103 -1.709300
						CHANNELS 3 Xrotation Yrotation Zrotation
						JOINT RightForeArm
						{
							OFFSET -22.049376 0.000000 0.000000
							CHANNELS 3 Xrotation Yrotation Zrotation
							JOINT RightHand
							{
								OFFSET -23.009392 0.000000 0.000000
								CHANNELS 3 Xrotation Yrotation Zrotation
								JOINT RightHandThumb1
								{
									OFFSET -3.507191 -2.063065 3.133727
									CHANNELS 3 Xrotation Yrotation Zrotation
									JOINT RightHandThumb2
									{
										OFFSET -3.101337 -1.790558 1.790558
										CHANNELS 3 Xrotation Yrotation Zrotation
										JOINT RightHandThumb3
										{
											OFFSET -3.058640 -1.765907 1.765906
											CHANNELS 3 Xrotation Yrotation Zrotation
											End Site
											{
												OFFSET 0.415260 3.926476 -0.049563
											}
										}
									}
								}
								JOINT RightHandIndex1
								{
									OFFSET -11.334419 -0.901459 3.706815
									CHANNELS 3 Xrotation Yrotation Zrotation
									JOINT RightHandIndex2
									{
										OFFSET -3.283112 0.000000 0.000000
										CHANNELS 3 Xrotation Yrotation Zrotation
										JOINT RightHandIndex3
										{
											OFFSET -3.323853 0.000000 0.000000
											CHANNELS 3 Xrotation Yrotation Zrotation
											End Site
											{
												OFFSET 1.135597 3.097809 0.402452
											}
										}
									}
								}
								JOINT RightHandMiddle1
								{
									OFFSET -11.335861 0.000000 0.000000
									CHANNELS 3 Xrotation Yrotation Zrotation
									JOINT RightHandMiddle2
									{
										OFFSET -3.410492 0.000000 0.000000
										CHANNELS 3 Xrotation Yrotation Zrotation
										JOINT RightHandMiddle3
										{
											OFFSET -3.312172 0.000000 0.000000
											CHANNELS 3 Xrotation Yrotation Zrotation
											End Site
											{
												OFFSET 1.150200 3.080154 0.400270
											}
										}
									}
								}
								JOINT RightHandRing1
								{
									OFFSET -11.514786 -0.013176 -3.003090
									CHANNELS 3 Xrotation Yrotation Zrotation
									JOINT RightHandRing2
									{
										OFFSET -3.053307 0.000000 0.000000
										CHANNELS 3 Xrotation Yrotation Zrotation
										JOINT RightHandRing3
										{
											OFFSET -3.295807 0.000000 0.000000
											CHANNELS 3 Xrotation Yrotation Zrotation
											End Site
											{
												OFFSET 1.281006 3.013344 0.375733
											}
										}
									}
								}
								JOINT RightHandPinky1
								{
									OFFSET -10.518692 -0.960396 -5.730441
									CHANNELS 3 Xrotation Yrotation Zrotation
									JOINT RightHandPinky2
									{
										OFFSET -2.861649 0.000000 0.000000
										CHANNELS 3 Xrotation Yrotation Zrotation
										JOINT RightHandPinky3
										{
											OFFSET -2.863380 0.000000 0.000000
											CHANNELS 3 Xrotation Yrotation Zrotation
											End Site
											{
												OFFSET 0.843597 2.711159 0.369971
											}
										}
									}
								}
							}
							JOINT RSleeve
							{
								OFFSET -6.676277 -0.344902 -1.011730
								CHANNELS 3 Xrotation Yrotation Zrotation
								End Site
								{
									OFFSET 0.000000 14.885353 0.000000
								}
							}
						}
					}
				}
				JOINT Backpack
				{
					OFFSET 0.000000 -2.471497 36.677502
					CHANNELS 3 Xrotation Yrotation Zrotation
					End Site
					{
						OFFSET 0.000000 20.427315 0.000000
					}
				}
				JOINT Hood
				{
					OFFSET 0.000000 18.754097 -10.431000
					CHANNELS 3 Xrotation Yrotation Zrotation
					JOINT Hood1
					{
						OFFSET 0.000000 -5.011002 -7.685901
						CHANNELS 3 Xrotation Yrotation Zrotation
						End Site
						{
							OFFSET 0.000000 9.175140 0.000000
						}
					}
				}
				JOINT LHoodieString
				{
					OFFSET 5.250500 16.397697 3.089900
					CHANNELS 3 Xrotation Yrotation Zrotation
					JOINT LHoodieString1
					{
						OFFSET 0.257700 -6.364304 3.694600
						CHANNELS 3 Xrotation Yrotation Zrotation
						JOINT LHoodieString2
						{
							OFFSET 0.000000 -9.643799 2.679100
							CHANNELS 3 Xrotation Yrotation Zrotation
							End Site
							{
								OFFSET 0.000000 10.009018 0.000000
							}
						}
					}
				}
				JOINT RHoodieString
				{
					OFFSET -5.250500 16.397697 3.089900
					CHANNELS 3 Xrotation Yrotation Zrotation
					JOINT RHoodieString1
					{
						OFFSET -0.257700 -6.364304 3.694600
						CHANNELS 3 Xrotation Yrotation Zrotation
						JOINT RHoodieString2
						{
							OFFSET 0.000000 -9.643799 2.679100
							CHANNELS 3 Xrotation Yrotation Zrotation
							End Site
							{
								OFFSET 0.000000 10.009018 0.000000
							}
						}
					}
				}
			}
			JOINT LBackpack_Strap
			{
				OFFSET 15.223200 -7.719803 -6.610900
				CHANNELS 3 Xrotation Yrotation Zrotation
				End Site
				{
					OFFSET 0.000000 16.040596 0.000000
				}
			}
			JOINT RBackpack_Strap
			{
				OFFSET -15.223000 -7.719803 -6.610900
				CHANNELS 3 Xrotation Yrotation Zrotation
				End Site
				{
					OFFSET 0.000000 16.040596 0.000000
				}
			}
		}
	}
	JOINT BoyFacialAnim_Joint
	{
		OFFSET 1.000000 -82.208099 -1.550900
		CHANNELS 3 Xrotation Yrotation Zrotation
		End Site
		{
			OFFSET 0.000000 30.012791 0.000000
		}
	}
}
MOTION
Frames: 5
Frame Time: 0.033333
0.017971 82.445992 0.245483 -3.753390 -5.223671 -3.502121 -0.000000 0.000000 -0.000000 -11.810848 14.468234 10.860183 13.140183 1.993956 4.172752 1.419726 0.531449 -7.652666 0.000000 0.000001 -0.000000 0.000000 0.000001 0.000000 -0.000000 0.000001 -0.000000 1.277989 -10.345185 3.319899 6.010890 -9.717285 -3.276739 -3.004740 -1.635156 3.136540 0.000000 -0.000000 0.000000 0.000000 -0.000000 0.000000 -0.000000 0.000002 0.000000 3.300676 1.528329 2.470141 1.145688 0.339377 1.538604 1.123306 0.365510 1.525135 5.622651 -0.064985 0.463709 -7.551216 1.388278 -0.080750 0.000000 0.000000 -0.000000 0.000000 0.000000 -0.000000 0.000000 0.000000 -0.000000 1.046097 -17.446004 -12.316925 3.916116 -19.990164 -69.767555 -0.000007 -1.453117 0.000002 -33.228286 -1.359648 -6.191147 -0.666102 2.158565 4.837393 11.866946 25.416266 17.055281 0.000000 -0.000000 -0.000003 -0.407820 -0.912723 -7.567467 0.268848 1.755999 -17.407505 0.000000 0.000000 -0.000002 -0.077460 2.661819 -15.698686 0.268772 1.755778 -17.405216 0.000001 -0.000000 0.000000 0.137975 3.644576 -21.134846 0.386567 2.094654 -20.910431 -0.000000 -0.000002 -0.000001 0.968546 5.534945 -27.130761 0.268811 1.755892 -17.406401 -0.000001 0.000000 -0.000002 -0.000000 -0.000000 -0.000001 1.187765 15.355025 14.709164 13.162742 27.550902 58.780984 -0.000010 6.689788 -0.000002 -20.174758 -0.523584 6.792876 -1.664529 -0.169106 -4.216952 12.705849 -29.838050 -16.128295 0.000000 0.000003 0.000004 -0.390926 1.215758 6.807081 0.214628 -1.398900 17.443960 -0.000001 0.000001 0.000002 -0.135887 -2.206387 14.998786 0.214466 -1.398420 17.437693 0.000003 0.000000 0.000003 0.031296 -3.078201 20.463785 0.308448 -1.668280 20.948537 -0.000000 0.000000 0.000000 0.790101 -4.865177 26.475283 0.214441 -1.398326 17.436501 -0.000001 -0.000001 0.000002 -0.000002 0.000000 -0.000001 -0.000000 -0.000000 -0.000000 -0.000000 -0.000000 -0.000000 -0.000000 -0.000000 -0.000000 -0.000000 -0.000000 -0.000000 -0.000000 -0.000000 -0.000000 -0.000000 -0.000000 -0.000000 -0.000000 -0.000000 -0.000000 -0.000000 -0.000000 -0.000000 -0.000000 -0.000000 -0.000000 -0.000000 0.000000 0.000000 -0.000000 0.000000 0.000000 -0.000000 0.000000 -0.000000 
-0.004144 82.439453 0.227548 -3.779681 -5.188333 -3.498604 0.000000 -0.000000 -0.000000 -11.822949 14.466718 10.877885 13.171739 1.950474 4.173201 1.425127 0.531891 -7.652953 -0.000000 -0.000000 -0.000000 -0.000000 -0.000000 0.000000 -0.000000 -0.000002 0.000000 1.234971 -10.343047 3.324155 6.136813 -9.752690 -3.276543 -3.066208 -1.632959 3.128221 0.000000 -0.000000 0.000000 0.000000 -0.000000 0.000000 -0.000000 0.000000 -0.000000 3.339748 1.539612 2.455290 1.145689 0.339378 1.538604 1.123307 0.365508 1.525135 5.655835 -0.064983 0.463708 -7.379608 1.410018 -0.092132 0.000000 -0.000000 0.000000 0.000000 -0.000000 0.000000 0.000000 -0.000000 0.000000 1.042521 -17.404820 -12.324411 3.885204 -20.003725 -69.732126 -0.000000 -1.453128 -0.000009 -33.148585 -1.372856 -6.182170 -0.737304 2.300432 3.464437 11.866948 25.416252 17.055288 -0.000001 -0.000001 0.000000 -0.415175 -0.898432 -7.696279 0.269499 1.758055 -17.428580 -0.000000 0.000001 -0.000002 -0.083606 2.643398 -15.739782 0.269485 1.758041 -17.428368 -0.000001 -0.000000 -0.000002 0.140254 3.651707 -21.163216 0.386959 2.095667 -20.921141 0.000000 -0.000000 0.000003 0.986697 5.570599 -27.111094 0.269225 1.757220 -17.419935 -0.000000 -0.000001 -0.000000 0.000001 0.000000 0.000000 1.179047 15.355686 14.742086 13.062883 27.367414 58.745624 -0.000004 6.539812 0.000001 -20.787595 -0.577141 6.604870 -1.555742 -0.156245 -4.205942 12.712203 -29.838009 -16.111252 0.000003 0.000001 0.000000 -0.374536 1.188837 6.618222 0.213168 -1.394281 17.384551 0.000001 0.000000 0.000004 -0.142010 -2.171607 14.870208 0.216109 -1.403613 17.504747 0.000001 0.000003 0.000004 0.042044 -3.104279 20.399639 0.309769 -1.671733 20.993951 0.000001 0.000003 0.000002 0.787023 -4.860512 26.406925 0.212316 -1.391539 17.349147 0.000001 -0.000001 0.000000 -0.000002 -0.000000 0.000000 0.000000 0.000000 -0.000000 0.000000 0.000000 -0.000000 0.000000 0.000000 -0.000000 0.000000 0.000000 -0.000000 0.000000 0.000000 -0.000000 0.000000 0.000000 0.000000 0.000000 0.000000 -0.000000 0.000000 0.000000 -0.000000 0.000000 0.000000 0.000000 -0.000000 0.000000 -0.000000 -0.000000 0.000000 -0.000000 0.000000 -0.000000 -0.000000 
-0.024559 82.433830 0.212344 -3.787718 -5.138887 -3.492982 0.000000 0.000000 -0.000000 -11.850114 14.458867 10.883715 13.195131 1.915938 4.178616 1.437082 0.532231 -7.653058 -0.000000 -0.000001 0.000000 -0.000000 -0.000001 0.000000 -0.000000 -0.000000 0.000000 1.190163 -10.340855 3.330358 6.234974 -9.810344 -3.288779 -3.115399 -1.632448 3.133157 0.000000 -0.000000 0.000000 0.000000 -0.000000 0.000000 -0.000000 -0.000002 0.000000 3.353407 1.545842 2.439778 1.145688 0.339377 1.538604 1.123306 0.365510 1.525136 5.696455 -0.064984 0.459505 -7.171769 1.450677 -0.116322 0.000000 0.000000 -0.000000 0.000000 0.000000 -0.000000 0.000000 0.000000 -0.000000 1.028868 -17.285652 -12.361358 3.828378 -20.025703 -69.646100 -0.000007 -1.453125 0.000001 -32.896325 -1.403338 -6.159015 -2.367534 1.590803 2.758903 11.866946 25.416269 17.055281 0.000000 -0.000000 0.000001 -0.433238 -0.913514 -7.921696 0.270493 1.761245 -17.461179 -0.000002 -0.000001 -0.000002 -0.085261 2.649555 -15.877507 0.271273 1.763713 -17.486486 -0.000001 -0.000001 -0.000002 0.155432 3.697897 -21.333570 0.389587 2.102547 -20.993056 -0.000001 -0.000000 0.000001 1.018083 5.629826 -27.177717 0.271604 1.764789 -17.497445 -0.000000 0.000000 -0.000002 -0.000000 0.000000 -0.000001 1.149498 15.357884 14.853670 12.775017 26.836394 58.667234 -0.000004 6.123022 0.000005 -22.380484 -0.753171 6.041618 -1.469249 -0.063741 -4.284796 12.711890 -29.833556 -15.967078 -0.000004 -0.000003 -0.000003 -0.374035 1.208910 6.579810 0.216657 -1.405349 17.527025 -0.000001 0.000000 0.000002 -0.133226 -2.208007 14.905542 0.220814 -1.418455 17.695852 0.000000 0.000000 -0.000000 0.049361 -3.126978 20.472205 0.317788 -1.692511 21.267561 -0.000000 -0.000001 0.000002 0.791084 -4.866637 26.496689 0.216845 -1.405970 17.535027 -0.000002 -0.000001 0.000000 -0.000000 -0.000001 -0.000000 0.000000 -0.000000 -0.000000 0.000000 -0.000000 -0.000000 0.000000 -0.000000 -0.000000 0.000000 -0.000000 -0.000000 0.000000 -0.000000 0.000000 0.000000 -0.000000 0.000000 0.000000 -0.000000 -0.000000 0.000000 -0.000000 0.000000 0.000000 -0.000000 0.000000 0.000000 -0.000000 0.000000 0.000000 -0.000000 0.000000 0.000000 0.000000 -0.000000 
-0.044598 82.430130 0.198898 -3.784464 -5.083414 -3.487375 0.000000 0.000000 0.000000 -11.886074 14.442425 10.890086 13.204633 1.880417 4.190476 1.450981 0.532235 -7.666337 -0.000000 -0.000001 -0.000000 -0.000000 -0.000001 -0.000000 -0.000000 0.000000 0.000000 1.154106 -10.340191 3.353097 6.294238 -9.878041 -3.310913 -3.147382 -1.632129 3.133872 0.000000 -0.000000 -0.000000 0.000000 -0.000000 -0.000000 -0.000000 -0.000002 0.000000 3.349367 1.559264 2.428789 1.145688 0.339377 1.538604 1.123307 0.365509 1.525137 5.745252 -0.064984 0.447318 -6.926589 1.509412 -0.158585 0.000000 0.000000 -0.000000 0.000000 0.000000 -0.000000 0.000000 0.000000 -0.000000 1.006803 -17.093677 -12.432386 3.737087 -20.045289 -69.514455 -0.000002 -1.453133 -0.000003 -32.433778 -1.453015 -6.118822 -3.266394 1.481504 1.218429 11.866935 25.416263 17.055295 0.000000 0.000002 0.000002 -0.454024 -0.956367 -8.129730 0.274197 1.772983 -17.581428 -0.000001 -0.000000 -0.000002 -0.084188 2.673965 -16.115927 0.273994 1.772324 -17.574719 0.000003 -0.000000 0.000000 0.183081 3.778376 -21.590110 0.394074 2.114172 -21.114819 -0.000001 0.000001 -0.000002 1.072041 5.733429 -27.204275 0.276179 1.779228 -17.645372 -0.000001 0.000001 -0.000000 0.000003 0.000000 0.000000 1.117140 15.363722 15.016051 12.314667 26.024453 58.547487 -0.000002 5.489178 0.000021 -24.764715 -0.927814 5.181737 -1.175077 0.075628 -4.320571 12.738121 -29.858705 -15.772454 -0.000004 -0.000002 -0.000000 -0.382269 1.197318 6.714389 0.222666 -1.424251 17.770663 -0.000002 0.000000 0.000004 -0.128088 -2.238730 15.033465 0.227855 -1.440323 17.978079 0.000001 0.000001 0.000002 0.059692 -3.160391 20.613364 0.330831 -1.725607 21.704668 0.000000 -0.000000 -0.000003 0.795316 -4.871901 26.643207 0.228838 -1.443345 18.017124 0.000002 0.000001 0.000000 0.000001 -0.000001 0.000000 -0.000000 -0.000000 -0.000000 -0.000000 -0.000000 -0.000000 -0.000000 -0.000000 -0.000000 -0.000000 -0.000000 -0.000000 -0.000000 -0.000000 -0.000000 -0.000000 -0.000000 -0.000000 -0.000000 -0.000000 -0.000000 -0.000000 -0.000000 -0.000000 -0.000000 -0.000000 -0.000000 0.000000 0.000000 0.000000 0.000000 0.000000 0.000000 0.000000 0.000000 0.000000 
-0.066499 82.427322 0.186807 -3.793823 -5.038756 -3.484192 -0.000000 -0.000000 -0.000000 -11.905561 14.439344 10.907274 13.208626 1.841957 4.197269 1.463206 0.529847 -7.684468 0.000000 0.000000 0.000000 0.000000 0.000000 0.000000 0.000000 0.000000 0.000001 1.142111 -10.340301 3.383052 6.336064 -9.923827 -3.331153 -3.174266 -1.631006 3.125870 -0.000000 -0.000000 -0.000000 -0.000000 -0.000000 -0.000000 0.000000 0.000002 0.000000 3.353819 1.588718 2.420147 1.145688 0.339378 1.538604 1.123306 0.365509 1.525136 5.799560 -0.064985 0.428551 -6.653421 1.584600 -0.210303 0.000000 0.000000 0.000000 0.000000 0.000000 0.000000 0.000000 0.000000 0.000000 0.977721 -16.832004 -12.532454 3.598080 -20.062632 -69.345784 -0.000001 -1.453129 0.000001 -31.784391 -1.520204 -6.057214 -2.888288 1.717116 1.712350 11.866951 25.416266 17.055291 -0.000000 -0.000001 0.000000 -0.485378 -0.991708 -8.488749 0.277997 1.784912 -17.703692 -0.000001 -0.000000 -0.000004 -0.082016 2.709554 -16.446010 0.277078 1.782024 -17.674071 0.000001 -0.000000 0.000002 0.222404 3.889665 -21.951043 0.400151 2.129849 -21.279133 0.000001 -0.000000 -0.000000 1.157323 5.894329 -27.309929 0.283073 1.800719 -17.865799 -0.000001 0.000000 -0.000000 -0.000001 0.000000 0.000000 1.071607 15.379330 15.223788 11.700457 24.997302 58.389470 0.000001 4.688007 -0.000007 -27.781885 -1.021358 4.077665 -0.777836 0.235234 -4.388269 12.777440 -29.881579 -15.514846 0.000002 0.000002 0.000000 -0.377667 1.175231 6.684033 0.226119 -1.434954 17.908693 -0.000001 0.000001 0.000000 -0.119508 -2.274125 15.072783 0.238146 -1.471651 18.383140 -0.000002 0.000000 -0.000000 0.095479 -3.255800 20.618521 0.349139 -1.770878 22.304638 0.000001 0.000001 -0.000001 0.788929 -4.857177 26.740513 0.237857 -1.470793 18.371897 0.000001 0.000000 -0.000005 0.000001 -0.000001 0.000000 0.000000 0.000000 0.000000 0.000000 0.000000 0.000000 0.000000 0.000000 0.000000 0.000000 0.000000 0.000000 0.000000 0.000000 -0.000000 0.000000 -0.000000 -0.000000 0.000000 0.000000 0.000000 0.000000 0.000000 -0.000000 0.000000 -0.000000 -0.000000 0.000000 0.000000 -0.000000 0.000000 0.000000 -0.000000 -0.000000 -0.000000 -0.000000 
